HIERARCHY
ROOT hip
{
  OFFSET 0 0 0
  CHANNELS 6 Xposition Yposition Zposition Zrotation Yrotation Xrotation
  JOINT abdomen
  {
    OFFSET 0 20.6881 -0.73152
    CHANNELS 3 Zrotation Xrotation Yrotation
    JOINT chest
    {
      OFFSET 0 11.7043 -0.48768
      CHANNELS 3 Zrotation Xrotation Yrotation
      JOINT neck
      {
        OFFSET 0 22.1894 -2.19456
        CHANNELS 3 Zrotation Xrotation Yrotation
        JOINT head
        {
          OFFSET -0.24384 7.07133 1.2192
          CHANNELS 3 Zrotation Xrotation Yrotation
          JOINT leftEye
          {
            OFFSET 4.14528 8.04674 8.04672
            CHANNELS 3 Zrotation Xrotation Yrotation
            End Site
            {
              OFFSET 1 0 0
            }
          }
          JOINT rightEye
          {
            OFFSET -3.6576 8.04674 8.04672
            CHANNELS 3 Zrotation Xrotation Yrotation
            End Site
            {
              OFFSET 1 0 0
            }
          }
        }
      }
      JOINT rCollar
      {
        OFFSET -2.68224 19.2634 -4.8768
        CHANNELS 3 Zrotation Xrotation Yrotation
        JOINT rShldr
        {
          OFFSET -8.77824 -1.95073 1.46304
          CHANNELS 3 Zrotation Xrotation Yrotation
          JOINT rForeArm
          {
            OFFSET -28.1742 -1.7115 0.48768
            CHANNELS 3 Zrotation Xrotation Yrotation
            JOINT rHand
            {
              OFFSET -22.5879 0.773209 7.07136
              CHANNELS 3 Zrotation Xrotation Yrotation
              JOINT rThumb1
              {
                OFFSET -1.2192 -0.487915 3.41376
                CHANNELS 3 Zrotation Xrotation Yrotation
                JOINT rThumb2
                {
                  OFFSET -3.37035 -0.52449 3.41376
                  CHANNELS 3 Zrotation Xrotation Yrotation
                  End Site
                  {
                    OFFSET -1.78271 -1.18214 1.43049
                  }
                }
              }
              JOINT rIndex1
              {
                OFFSET -7.75947 0.938293 5.60832
                CHANNELS 3 Zrotation Xrotation Yrotation
                JOINT rIndex2
                {
                  OFFSET -2.54057 -0.884171 1.56538
                  CHANNELS 3 Zrotation Xrotation Yrotation
                  End Site
                  {
                    OFFSET -1.62519 -0.234802 1.16502
                  }
                }
              }
              JOINT rMid1
              {
                OFFSET -8.24714 1.18213 3.41376
                CHANNELS 3 Zrotation Xrotation Yrotation
                JOINT rMid2
                {
                  OFFSET -3.10165 -0.590103 1.0647
                  CHANNELS 3 Zrotation Xrotation Yrotation
                  End Site
                  {
                    OFFSET -2.48547 -0.328903 0.83742
                  }
                }
              }
              JOINT rRing1
              {
                OFFSET -8.82822 0.546677 1.51678
                CHANNELS 3 Zrotation Xrotation Yrotation
                JOINT rRing2
                {
                  OFFSET -2.60934 -0.819778 -0.0198488
                  CHANNELS 3 Zrotation Xrotation Yrotation
                  End Site
                  {
                    OFFSET -2.33842 -0.294052 0.168128
                  }
                }
              }
              JOINT rPinky1
              {
                OFFSET -8.27202 -0.0477905 -0.4584
                CHANNELS 3 Zrotation Xrotation Yrotation
                JOINT rPinky2
                {
                  OFFSET -1.82734 -0.647385 -0.700984
                  CHANNELS 3 Zrotation Xrotation Yrotation
                  End Site
                  {
                    OFFSET -1.69225 -0.51767 -0.607171
                  }
                }
              }
            }
          }
        }
      }
      JOINT lCollar
      {
        OFFSET 2.68224 19.2634 -4.8768
        CHANNELS 3 Zrotation Xrotation Yrotation
        JOINT lShldr
        {
          OFFSET 8.77824 -1.95073 1.46304
          CHANNELS 3 Zrotation Xrotation Yrotation
          JOINT lForeArm
          {
            OFFSET 28.1742 -1.7115 0.48768
            CHANNELS 3 Zrotation Xrotation Yrotation
            JOINT lHand
            {
              OFFSET 22.5879 0.773209 7.07136
              CHANNELS 3 Zrotation Xrotation Yrotation
              JOINT lThumb1
              {
                OFFSET 1.2192 -0.487915 3.41376
                CHANNELS 3 Zrotation Xrotation Yrotation
                JOINT lThumb2
                {
                  OFFSET 3.37035 -0.52449 3.41376
                  CHANNELS 3 Zrotation Xrotation Yrotation
                  End Site
                  {
                    OFFSET 1.78271 -1.18214 1.43049
                  }
                }
              }
              JOINT lIndex1
              {
                OFFSET 7.75947 0.938293 5.60832
                CHANNELS 3 Zrotation Xrotation Yrotation
                JOINT lIndex2
                {
                  OFFSET 2.54057 -0.884171 1.56538
                  CHANNELS 3 Zrotation Xrotation Yrotation
                  End Site
                  {
                    OFFSET 1.62519 -0.234802 1.16502
                  }
                }
              }
              JOINT lMid1
              {
                OFFSET 8.24714 1.18213 3.41376
                CHANNELS 3 Zrotation Xrotation Yrotation
                JOINT lMid2
                {
                  OFFSET 3.10165 -0.590103 1.0647
                  CHANNELS 3 Zrotation Xrotation Yrotation
                  End Site
                  {
                    OFFSET 2.48547 -0.328903 0.83742
                  }
                }
              }
              JOINT lRing1
              {
                OFFSET 8.82822 0.546677 1.51678
                CHANNELS 3 Zrotation Xrotation Yrotation
                JOINT lRing2
                {
                  OFFSET 2.60934 -0.819778 -0.0198488
                  CHANNELS 3 Zrotation Xrotation Yrotation
                  End Site
                  {
                    OFFSET 2.33842 -0.294052 0.168128
                  }
                }
              }
              JOINT lPinky1
              {
                OFFSET 8.27202 -0.0477905 -0.4584
                CHANNELS 3 Zrotation Xrotation Yrotation
                JOINT lPinky2
                {
                  OFFSET 1.82734 -0.647385 -0.700984
                  CHANNELS 3 Zrotation Xrotation Yrotation
                  End Site
                  {
                    OFFSET 1.69225 -0.51767 -0.607171
                  }
                }
              }
            }
          }
        }
      }
    }
  }
  JOINT rButtock
  {
    OFFSET -8.77824 4.35084 1.2192
    CHANNELS 3 Zrotation Xrotation Yrotation
    JOINT rThigh
    {
      OFFSET 0 -1.70687 -2.19456
      CHANNELS 3 Zrotation Xrotation Yrotation
      JOINT rShin
      {
        OFFSET 0 -36.8199 0.73152
        CHANNELS 3 Zrotation Xrotation Yrotation
        JOINT rFoot
        {
          OFFSET 0.73152 -45.1104 -5.12064
          CHANNELS 3 Zrotation Xrotation Yrotation
          End Site
          {
            OFFSET -1.1221 -3.69964 12.103
          }
        }
      }
    }
  }
  JOINT lButtock
  {
    OFFSET 8.77824 4.35084 1.2192
    CHANNELS 3 Zrotation Xrotation Yrotation
    JOINT lThigh
    {
      OFFSET 0 -1.70687 -2.19456
      CHANNELS 3 Zrotation Xrotation Yrotation
      JOINT lShin
      {
        OFFSET 0 -36.8199 0.73152
        CHANNELS 3 Zrotation Xrotation Yrotation
        JOINT lFoot
        {
          OFFSET -0.73152 -45.1104 -5.12064
          CHANNELS 3 Zrotation Xrotation Yrotation
          End Site
          {
            OFFSET 1.1221 -3.69964 12.103
          }
        }
      }
    }
  }
}
MOTION
Frames:	4
Frame Time:	0.03333
0.01135813258588314 -0.3170049488544464 0.07496245950460434 -18.975817412137985 -3.4355375915765762 3.9722590148448944 -1.54532790184021 13.497146666049957 3.650573641061783 2.6238542050123215 -9.441111534833908 1.2837945856153965 -4.517215825617313 14.706919491291046 -3.4994281455874443 8.809836879372597 -23.191344738006592 -5.284833535552025 -0.03790506161749363 0.18076831474900246 0.06286613876000047 0.003295973874628544 0.18937066197395325 0.02383816405199468 -0.07193125085905194 0.03193299751728773 -0.030602391343563795 44.055934846401215 26.66858732700348 12.132665365934372 -23.227884471416473 -26.97040021419525 60.46895384788513 -3.936461918056011 -10.793622806668282 -3.6472369730472565 0.05600054282695055 -0.24337392300367355 0.5048488173633814 0.2652393118478358 0.022358621936291456 0.006719562225043774 0.15345211140811443 0.07858392549678683 0.004937024787068367 7.75097519159317 5.454169437289238 0.38522321730852127 0.12287341989576817 -0.1261051674373448 0.04376476630568504 2.9523490369319916 1.0631432477384806 -0.024414220824837685 -0.10165320709347725 0.2156068990007043 0.021719837095588446 10.256761908531189 0.6580156926065683 -0.10944083333015442 -0.044465409591794014 0.07230992428958416 -0.1695705740712583 2.3134800419211388 -0.8700269646942616 -0.3021239396184683 -0.22051441948860884 0.15081172809004784 -0.20688846241682768 -50.386401414871216 28.781763017177582 -24.72675383090973 21.754203736782074 -24.08153772354126 -56.29947602748871 4.691411554813385 -11.783110499382019 3.3645110204815865 -0.03380305250175297 0.040397713892161846 -0.041126845171675086 0.12549584498628974 -0.03574506612494588 -0.49291650764644146 -0.3643299825489521 0.15117541886866093 -0.057906126603484154 -7.6903726905584335 5.408785790205002 -0.4799350770190358 -0.06621205830015242 0.25739521253854036 -0.09289759676903486 -3.0035487189888954 0.8451083209365606 -0.20926341181620955 -0.28581082820892334 0.04600847605615854 0.1801450364291668 -10.372352376580238 1.030148807913065 -0.2423719922080636 -0.21616544807329774 -0.05513308919034898 -0.14281362178735435 -2.301127463579178 -0.8227361831814051 0.19531986443325877 0.17181277507916093 0.026918031508103013 -0.020955009385943413 -31.61806493997574 -31.433483362197876 -26.14113360643387 -19.30433839559555 57.412694692611694 20.432172417640686 -4.400265142321587 -10.19511267542839 -9.125400111079216 -0.17578231869265437 -0.34265337511897087 0.13579014223068953 34.68381643295288 -31.036570072174072 27.87507712841034 21.037960052490234 58.24535429477692 -19.45048525929451 4.9418919906020164 -10.566425621509552 12.868573665618896
0.005241766571998596 -0.9736844897270203 0.19967104494571686 -20.966852009296417 -2.5238674879074097 6.736005172133446 -2.317865788936615 14.186554849147797 3.884258419275284 2.953696846961975 -9.854369536042213 1.3010384235531092 -4.709749147295952 15.375430583953857 -3.616650402545929 9.114116728305817 -24.56596076488495 -5.39034828543663 -0.054057324305176735 -0.039104511961340904 0.07901330944150686 0.1067061850335449 0.09519830346107483 -0.07186946575529873 0.0339409033767879 0.08072264143265784 -0.10199917014688253 50.675071477890015 30.422679483890533 14.015609622001648 -23.91063004732132 -30.070618093013763 66.91189885139465 -5.059832073748112 -14.48629841208458 -4.76685706526041 -0.015166488010436296 -0.1631271536462009 0.21374037489295006 0.2713359519839287 0.06872571771964431 -0.019949160050600767 0.11625288985669613 0.05315854330547154 -0.016456316225230694 7.76165708899498 5.514800101518631 0.37320482544600964 0.1072656037285924 -0.06282575894147158 0.026709605008363724 3.074018731713295 1.0126017965376377 0.06343212677165866 0.049864696338772774 0.15633611474186182 0.12152982177212834 10.403423756361008 0.7333141006529331 0.05770223680883646 0.09417340625077486 0.010859593749046326 -0.13118344824761152 2.3599022068083286 -0.8547017443925142 -0.2264677081257105 -0.14983634697273374 0.042373244650661945 -0.22437087027356029 -58.04220914840698 32.38387316465378 -24.81611430644989 22.922061681747437 -27.437890470027924 -61.79855704307556 5.895241945981979 -11.309483349323273 3.3826471120119095 0.035935083869844675 0.05791152245365083 -0.02023373090196401 0.05247016903012991 -0.006996081210672855 -0.19309700466692448 -0.12511339969933033 0.1262251753360033 -0.08165136678144336 -7.624617666006088 5.459134206175804 -0.45904699712991714 -0.08737116702832282 0.1801199745386839 0.012792963534593582 -2.9905524104833603 0.905085364356637 -0.13765243347734213 0.2780947834253311 0.021921683801338077 0.06325642112642527 -10.416855588555336 0.9486862644553185 -0.18905411940068007 -0.1185288280248642 -0.06413686671294272 -0.1577930257190019 -2.228873949497938 -0.8697993122041225 0.19970894325524569 0.1392889057751745 -0.011455368949100375 0.12135474476963282 -34.94474172592163 -34.278486371040344 -30.382990837097168 -21.380596160888672 62.909356355667114 21.04282557964325 -4.171082451939583 -10.42956992983818 -9.776262938976288 -0.147481975145638 -0.23042643908411264 0.009604340884834528 40.09955585002899 -32.60112404823303 33.728649616241455 22.195609509944916 63.14538538455963 -22.616539299488068 4.928864166140556 -10.91654509305954 14.143960028886795
0.4406508654356003 -4.078489780426025 1.8398856073617935 0.4195980727672577 -13.68495225906372 8.450238481163979 -0.5853954702615738 13.959818333387375 6.241359561681747 1.6448628343641758 -9.208973720669746 2.0537858828902245 -4.6483805403113365 13.406788408756256 -3.2836541533470154 9.352021291851997 -23.443555533885956 -4.657099731266499 -0.6108375219628215 -0.18526755273342133 0.0011222949251532555 0.6530990777537227 0.021273898892104626 0.12447477201931179 0.5577640235424042 0.45377624686807394 -0.07556629367172718 49.10792112350464 31.701135635375977 14.488072693347931 -24.27016943693161 -27.312440872192383 59.691317081451416 0.8472745399922132 -4.642419666051865 0.46139661222696304 0.48179615288972855 0.23110656766220927 0.43768202885985374 0.6198699027299881 0.42521847411990166 -0.12953196186572313 0.5046958476305008 -0.12765175430104136 0.14533034060150385 7.925330176949501 5.717907026410103 0.4556754603981972 0.6141588930040598 0.02192844171077013 0.3122984175570309 3.3292698115110397 1.6621189936995506 0.16432486474514008 -0.30431807041168213 -0.17889491748064756 -0.26159773115068674 10.370368883013725 0.4233728628605604 0.1440611109137535 0.3273271070793271 -0.34961127676069736 -0.11447406141087413 2.324681617319584 -0.5994016723707318 0.4600273445248604 -0.11377473827451468 0.18003192264586687 0.1664939126931131 -53.118043541908264 32.22095310688019 -22.880581319332123 22.507673799991608 -23.676575124263763 -54.457844495773315 2.0075449347496033 -9.281844645738602 1.0323578584939241 0.06409073481336236 -0.4137534974142909 0.5558055499568582 0.174349055159837 0.972970649600029 0.19072542898356915 -0.06201677955687046 0.6882825773209333 -0.7166219595819712 -7.125565856695175 5.545774921774864 -0.3491844073869288 0.3682350693270564 0.11607402004301548 -0.2761073084548116 -3.0086425691843033 0.9280564729124308 -0.13468804769217968 -0.8999091200530529 -0.2636906923726201 0.2647603489458561 -10.368267372250557 1.0062406864017248 0.10211953427642584 0.051763029769062996 -0.19450992112979293 0.16763794817961752 -2.5832227617502213 -0.8273223415017128 0.0497284485027194 -0.20681790774688125 -0.16329348203726113 0.01366212498396635 -14.52928751707077 -17.157539874315262 -11.724295020103455 -11.02535292506218 47.20802664756775 7.976595908403397 -6.9443390518426895 -5.462884604930878 -19.484754502773285 -0.7057825662195683 0.32837777864187956 -0.03945862641558051 41.52013957500458 -40.533703565597534 32.912453413009644 17.929832339286804 60.29015779495239 -9.031074196100235 3.986108936369419 -1.2347301095724106 12.736244201660156
0.8293512016534805 -5.432011127471924 3.021955981850624 -8.978265523910522 -23.3049738407135 5.876858755946159 -2.56844412535429 14.784981161355972 14.70944881439209 -2.222073208540678 -7.198283225297928 4.457406252622604 -1.917966865003109 11.74513041973114 1.5855972468852997 3.6163027212023735 -23.885583579540253 2.8205301985144615 -0.775851421058178 0.0695532001554966 0.3331985673867166 1.044674227014184 0.4000097746029496 0.06631467374972999 1.1161962524056435 0.6463552499189973 -0.7337528932839632 62.435951828956604 43.426095843315125 -1.5280590020120144 -25.50250768661499 -28.833178281784058 67.62309730052948 2.8045301511883736 0.27227853890508413 3.17880492657423 0.7160586956888437 -0.29545104363933206 0.549021027982235 0.8857805840671062 1.2388577777892351 -0.22628253092989326 0.9757392760366201 0.17545433482155204 -0.19625174347311258 7.317833304405212 5.324058830738068 0.49008254427462816 0.7516049221158028 0.17850323114544153 1.1100156884640455 3.4501519426703453 2.0709397830069065 0.07687257137149572 0.23155560716986656 0.27196467854082584 -0.05280205048620701 9.600129649043083 0.1467379555106163 0.19627181813120842 0.05189445801079273 -0.15076386742293835 0.521883275359869 2.4833684787154198 -0.8274189848452806 0.9657288528978825 -0.2856615465134382 0.25183782214298844 -0.10427904780954123 -59.952296018600464 27.580994367599487 -5.834809765219688 22.05771580338478 -20.62791734933853 -51.6585248708725 0.6560857174918056 -17.095583528280258 1.815377064049244 0.21944754989817739 -0.5765784624963999 0.4924040799960494 0.24557056836783886 1.1561611667275429 -0.4494533222168684 -0.30373997054994106 1.1006007995456457 -1.4635096304118633 -6.724221557378769 5.312234647572041 -0.47944611869752407 -0.1047736220061779 0.4583040252327919 -0.49959462136030197 -2.607892882078886 0.45832925476133823 -0.7459527533501387 -1.1342165060341358 -0.4480651533231139 0.9314644709229469 -10.022734478116035 1.4048327878117561 0.21664151921868324 -0.20456179277971387 -0.917862905189395 0.15686445753090084 -2.345812562853098 -0.9426700696349144 -0.6378430919721723 -0.21948623238131404 -0.37512335926294327 -0.20322347525507212 -4.6832844614982605 -5.5436137318611145 5.903603732585907 -2.484104409813881 47.6610141992569 13.615648001432419 -8.857387080788612 -1.7870418727397919 -22.376554012298584 -1.0211216658353806 -0.09330571163445711 -0.011959110852330923 50.63301980495453 -51.52644753456116 41.582624316215515 18.377324044704437 57.56354749202728 -0.14796506613492966 1.2426164746284485 5.079853758215904 6.055287346243858
